<?xml version="1.0" encoding="utf-8"?>
<svg xmlns="http://www.w3.org/2000/svg" xmlns:xlink="http://www.w3.org/1999/xlink" style="margin: auto; background: none; display: block; shape-rendering: auto;" width="211px" height="211px" viewBox="0 0 100 100" preserveAspectRatio="xMidYMid">
<g transform="rotate(0 50 50)">
  <rect x="47.5" y="28.5" rx="2.5" ry="3.5" width="5" height="7" fill="#eab145">
    <animate attributeName="opacity" values="1;0" keyTimes="0;1" dur="1.3513513513513513s" begin="-1.2612612612612613s" repeatCount="indefinite"></animate>
  </rect>
</g><g transform="rotate(24 50 50)">
  <rect x="47.5" y="28.5" rx="2.5" ry="3.5" width="5" height="7" fill="#eab145">
    <animate attributeName="opacity" values="1;0" keyTimes="0;1" dur="1.3513513513513513s" begin="-1.1711711711711712s" repeatCount="indefinite"></animate>
  </rect>
</g><g transform="rotate(48 50 50)">
  <rect x="47.5" y="28.5" rx="2.5" ry="3.5" width="5" height="7" fill="#eab145">
    <animate attributeName="opacity" values="1;0" keyTimes="0;1" dur="1.3513513513513513s" begin="-1.0810810810810811s" repeatCount="indefinite"></animate>
  </rect>
</g><g transform="rotate(72 50 50)">
  <rect x="47.5" y="28.5" rx="2.5" ry="3.5" width="5" height="7" fill="#eab145">
    <animate attributeName="opacity" values="1;0" keyTimes="0;1" dur="1.3513513513513513s" begin="-0.990990990990991s" repeatCount="indefinite"></animate>
  </rect>
</g><g transform="rotate(96 50 50)">
  <rect x="47.5" y="28.5" rx="2.5" ry="3.5" width="5" height="7" fill="#eab145">
    <animate attributeName="opacity" values="1;0" keyTimes="0;1" dur="1.3513513513513513s" begin="-0.9009009009009009s" repeatCount="indefinite"></animate>
  </rect>
</g><g transform="rotate(120 50 50)">
  <rect x="47.5" y="28.5" rx="2.5" ry="3.5" width="5" height="7" fill="#eab145">
    <animate attributeName="opacity" values="1;0" keyTimes="0;1" dur="1.3513513513513513s" begin="-0.8108108108108109s" repeatCount="indefinite"></animate>
  </rect>
</g><g transform="rotate(144 50 50)">
  <rect x="47.5" y="28.5" rx="2.5" ry="3.5" width="5" height="7" fill="#eab145">
    <animate attributeName="opacity" values="1;0" keyTimes="0;1" dur="1.3513513513513513s" begin="-0.7207207207207208s" repeatCount="indefinite"></animate>
  </rect>
</g><g transform="rotate(168 50 50)">
  <rect x="47.5" y="28.5" rx="2.5" ry="3.5" width="5" height="7" fill="#eab145">
    <animate attributeName="opacity" values="1;0" keyTimes="0;1" dur="1.3513513513513513s" begin="-0.6306306306306306s" repeatCount="indefinite"></animate>
  </rect>
</g><g transform="rotate(192 50 50)">
  <rect x="47.5" y="28.5" rx="2.5" ry="3.5" width="5" height="7" fill="#eab145">
    <animate attributeName="opacity" values="1;0" keyTimes="0;1" dur="1.3513513513513513s" begin="-0.5405405405405406s" repeatCount="indefinite"></animate>
  </rect>
</g><g transform="rotate(216 50 50)">
  <rect x="47.5" y="28.5" rx="2.5" ry="3.5" width="5" height="7" fill="#eab145">
    <animate attributeName="opacity" values="1;0" keyTimes="0;1" dur="1.3513513513513513s" begin="-0.45045045045045046s" repeatCount="indefinite"></animate>
  </rect>
</g><g transform="rotate(240 50 50)">
  <rect x="47.5" y="28.5" rx="2.5" ry="3.5" width="5" height="7" fill="#eab145">
    <animate attributeName="opacity" values="1;0" keyTimes="0;1" dur="1.3513513513513513s" begin="-0.3603603603603604s" repeatCount="indefinite"></animate>
  </rect>
</g><g transform="rotate(264 50 50)">
  <rect x="47.5" y="28.5" rx="2.5" ry="3.5" width="5" height="7" fill="#eab145">
    <animate attributeName="opacity" values="1;0" keyTimes="0;1" dur="1.3513513513513513s" begin="-0.2702702702702703s" repeatCount="indefinite"></animate>
  </rect>
</g><g transform="rotate(288 50 50)">
  <rect x="47.5" y="28.5" rx="2.5" ry="3.5" width="5" height="7" fill="#eab145">
    <animate attributeName="opacity" values="1;0" keyTimes="0;1" dur="1.3513513513513513s" begin="-0.1801801801801802s" repeatCount="indefinite"></animate>
  </rect>
</g><g transform="rotate(312 50 50)">
  <rect x="47.5" y="28.5" rx="2.5" ry="3.5" width="5" height="7" fill="#eab145">
    <animate attributeName="opacity" values="1;0" keyTimes="0;1" dur="1.3513513513513513s" begin="-0.0900900900900901s" repeatCount="indefinite"></animate>
  </rect>
</g><g transform="rotate(336 50 50)">
  <rect x="47.5" y="28.5" rx="2.5" ry="3.5" width="5" height="7" fill="#eab145">
    <animate attributeName="opacity" values="1;0" keyTimes="0;1" dur="1.3513513513513513s" begin="0s" repeatCount="indefinite"></animate>
  </rect>
</g>
<!-- [ldio] generated by https://loading.io/ --></svg>